<svg xmlns="http://www.w3.org/2000/svg" xmlns:xlink="http://www.w3.org/1999/xlink" width="840" zoomAndPan="magnify" viewBox="0 0 630 119.999999" height="160" preserveAspectRatio="xMidYMid meet" version="1.0"><defs><g/><clipPath id="b3269b6e8b"><path d="M 114.40625 40.898438 L 152.65625 40.898438 L 152.65625 79.148438 L 114.40625 79.148438 Z M 114.40625 40.898438 " clip-rule="nonzero"/></clipPath><clipPath id="880a34b101"><path d="M 4.207031 2 L 114.457031 2 L 114.457031 118 L 4.207031 118 Z M 4.207031 2 " clip-rule="nonzero"/></clipPath></defs><g clip-path="url(#b3269b6e8b)"><path fill="#ffbb37" d="M 152.65625 60.023438 C 152.65625 60.652344 152.625 61.277344 152.5625 61.898438 C 152.503906 62.523438 152.410156 63.140625 152.289062 63.753906 C 152.167969 64.371094 152.015625 64.976562 151.832031 65.574219 C 151.652344 66.175781 151.441406 66.765625 151.199219 67.34375 C 150.960938 67.921875 150.691406 68.488281 150.398438 69.039062 C 150.101562 69.59375 149.78125 70.128906 149.433594 70.648438 C 149.085938 71.171875 148.710938 71.671875 148.316406 72.15625 C 147.917969 72.640625 147.496094 73.105469 147.054688 73.546875 C 146.613281 73.992188 146.148438 74.410156 145.664062 74.808594 C 145.179688 75.207031 144.675781 75.578125 144.15625 75.925781 C 143.636719 76.273438 143.097656 76.59375 142.546875 76.890625 C 141.996094 77.1875 141.429688 77.453125 140.851562 77.695312 C 140.269531 77.933594 139.683594 78.144531 139.082031 78.324219 C 138.484375 78.507812 137.875 78.660156 137.261719 78.78125 C 136.648438 78.902344 136.027344 78.996094 135.40625 79.058594 C 134.78125 79.117188 134.15625 79.148438 133.53125 79.148438 C 132.90625 79.148438 132.28125 79.117188 131.65625 79.058594 C 131.035156 78.996094 130.414062 78.902344 129.800781 78.78125 C 129.1875 78.660156 128.578125 78.507812 127.980469 78.324219 C 127.378906 78.144531 126.792969 77.933594 126.210938 77.695312 C 125.632812 77.453125 125.066406 77.1875 124.515625 76.890625 C 123.964844 76.59375 123.425781 76.273438 122.90625 75.925781 C 122.386719 75.578125 121.882812 75.207031 121.398438 74.808594 C 120.914062 74.410156 120.449219 73.992188 120.007812 73.546875 C 119.566406 73.105469 119.144531 72.640625 118.746094 72.15625 C 118.351562 71.671875 117.976562 71.171875 117.628906 70.648438 C 117.28125 70.128906 116.960938 69.59375 116.664062 69.039062 C 116.371094 68.488281 116.101562 67.921875 115.863281 67.34375 C 115.621094 66.765625 115.410156 66.175781 115.230469 65.574219 C 115.046875 64.976562 114.894531 64.371094 114.773438 63.753906 C 114.652344 63.140625 114.558594 62.523438 114.5 61.898438 C 114.4375 61.277344 114.40625 60.652344 114.40625 60.023438 C 114.40625 59.398438 114.4375 58.773438 114.5 58.148438 C 114.558594 57.527344 114.652344 56.90625 114.773438 56.292969 C 114.894531 55.679688 115.046875 55.070312 115.230469 54.472656 C 115.410156 53.875 115.621094 53.285156 115.863281 52.707031 C 116.101562 52.125 116.371094 51.5625 116.664062 51.007812 C 116.960938 50.457031 117.28125 49.917969 117.628906 49.398438 C 117.976562 48.878906 118.351562 48.375 118.746094 47.890625 C 119.144531 47.40625 119.566406 46.945312 120.007812 46.5 C 120.449219 46.058594 120.914062 45.636719 121.398438 45.242188 C 121.882812 44.84375 122.386719 44.46875 122.90625 44.121094 C 123.425781 43.773438 123.964844 43.453125 124.515625 43.15625 C 125.066406 42.863281 125.632812 42.59375 126.210938 42.355469 C 126.792969 42.117188 127.378906 41.90625 127.980469 41.722656 C 128.578125 41.539062 129.1875 41.390625 129.800781 41.265625 C 130.414062 41.144531 131.035156 41.050781 131.65625 40.992188 C 132.28125 40.929688 132.90625 40.898438 133.53125 40.898438 C 134.15625 40.898438 134.78125 40.929688 135.40625 40.992188 C 136.027344 41.050781 136.648438 41.144531 137.261719 41.265625 C 137.875 41.390625 138.484375 41.539062 139.082031 41.722656 C 139.683594 41.90625 140.269531 42.117188 140.851562 42.355469 C 141.429688 42.59375 141.996094 42.863281 142.546875 43.15625 C 143.097656 43.453125 143.636719 43.773438 144.15625 44.121094 C 144.675781 44.46875 145.179688 44.84375 145.664062 45.242188 C 146.148438 45.636719 146.613281 46.058594 147.054688 46.5 C 147.496094 46.945312 147.917969 47.40625 148.316406 47.890625 C 148.710938 48.375 149.085938 48.878906 149.433594 49.398438 C 149.78125 49.917969 150.101562 50.457031 150.398438 51.007812 C 150.691406 51.5625 150.960938 52.125 151.199219 52.707031 C 151.441406 53.285156 151.652344 53.875 151.832031 54.472656 C 152.015625 55.070312 152.167969 55.679688 152.289062 56.292969 C 152.410156 56.90625 152.503906 57.527344 152.5625 58.148438 C 152.625 58.773438 152.65625 59.398438 152.65625 60.023438 Z M 152.65625 60.023438 " fill-opacity="1" fill-rule="nonzero"/></g><path fill="#f01f4b" d="M 64.867188 59.714844 L 112.847656 84.234375 C 103.730469 102.960938 84.480469 115.863281 62.207031 115.863281 C 31.136719 115.863281 5.933594 90.730469 5.933594 59.714844 C 5.933594 28.699219 31.121094 3.566406 62.207031 3.566406 C 83.253906 3.566406 101.625 15.109375 111.257812 32.195312 Z M 64.867188 59.714844 " fill-opacity="1" fill-rule="nonzero"/><g clip-path="url(#880a34b101)"><path fill="#f01f4b" d="M 64.140625 60.957031 C 69.542969 63.707031 74.941406 66.480469 80.34375 69.230469 C 88.964844 73.625 97.5625 78.023438 106.183594 82.4375 C 108.15625 83.449219 110.148438 84.460938 112.121094 85.476562 C 111.949219 84.824219 111.773438 84.175781 111.601562 83.507812 C 107.3125 92.257812 100.78125 99.828125 92.640625 105.234375 C 84.308594 110.777344 74.539062 113.96875 64.523438 114.371094 C 55.117188 114.753906 45.675781 112.746094 37.285156 108.464844 C 29.28125 104.355469 22.289062 98.316406 17.15625 90.921875 C 11.910156 83.355469 8.554688 74.488281 7.636719 65.292969 C 6.71875 55.96875 8.117188 46.414062 11.910156 37.8125 C 15.566406 29.519531 21.253906 22.21875 28.378906 16.621094 C 35.5625 10.964844 44.183594 7.238281 53.183594 5.726562 C 63.105469 4.0625 73.449219 5.230469 82.777344 8.976562 C 91.933594 12.644531 100.089844 18.933594 106.011719 26.804688 C 107.464844 28.753906 108.804688 30.800781 110.011719 32.921875 C 110.183594 32.269531 110.359375 31.621094 110.53125 30.953125 C 105.300781 34.046875 100.089844 37.144531 94.863281 40.242188 C 86.53125 45.171875 78.199219 50.121094 69.886719 55.050781 C 67.972656 56.179688 66.054688 57.324219 64.140625 58.453125 C 62.550781 59.390625 63.988281 61.875 65.597656 60.9375 C 70.824219 57.839844 76.035156 54.746094 81.261719 51.648438 C 89.59375 46.71875 97.925781 41.769531 106.238281 36.839844 C 108.15625 35.710938 110.070312 34.566406 111.984375 33.4375 C 112.65625 33.035156 112.886719 32.15625 112.503906 31.46875 C 107.371094 22.429688 99.824219 14.824219 90.78125 9.683594 C 81.492188 4.390625 70.75 1.769531 60.058594 2.171875 C 50.292969 2.535156 40.675781 5.382812 32.324219 10.445312 C 24.203125 15.359375 17.347656 22.277344 12.503906 30.4375 C 7.523438 38.84375 4.765625 48.476562 4.515625 58.242188 C 4.265625 68.066406 6.566406 77.886719 11.140625 86.582031 C 15.546875 94.933594 22.058594 102.121094 29.875 107.433594 C 37.917969 112.878906 47.304688 116.1875 56.976562 117.066406 C 67.453125 118.019531 78.121094 116.050781 87.585938 111.429688 C 96.796875 106.9375 104.707031 99.941406 110.359375 91.4375 C 111.738281 89.355469 112.980469 87.195312 114.074219 84.960938 C 114.398438 84.289062 114.285156 83.375 113.554688 82.992188 C 108.15625 80.238281 102.753906 77.46875 97.351562 74.714844 C 88.734375 70.320312 80.132812 65.925781 71.515625 61.511719 C 69.542969 60.496094 67.550781 59.484375 65.578125 58.472656 C 63.949219 57.652344 62.492188 60.117188 64.140625 60.957031 Z M 64.140625 60.957031 " fill-opacity="1" fill-rule="nonzero"/></g><g fill="#0b0330" fill-opacity="1"><g transform="translate(180.91454, 114.112802)"><g><path d="M 3.4375 0 L 3.4375 -1.5625 L 6.25 -2.65625 C 8.332031 -3.488281 9.765625 -4.53125 10.546875 -5.78125 C 11.328125 -7.03125 11.71875 -8.695312 11.71875 -10.78125 L 11.71875 -92.375 C 11.71875 -94.5625 11.328125 -96.28125 10.546875 -97.53125 C 9.765625 -98.78125 8.332031 -99.769531 6.25 -100.5 L 3.4375 -101.59375 L 3.4375 -103.15625 L 48.296875 -103.15625 C 61.003906 -103.15625 70.171875 -100.835938 75.796875 -96.203125 C 81.429688 -91.566406 84.25 -85.707031 84.25 -78.625 C 84.25 -73.300781 82.1875 -68.476562 78.0625 -64.15625 C 73.945312 -59.832031 66.890625 -56.785156 56.890625 -55.015625 C 68.347656 -53.765625 76.734375 -50.769531 82.046875 -46.03125 C 87.367188 -41.289062 90.03125 -35.535156 90.03125 -28.765625 C 90.03125 -25.421875 89.300781 -22.054688 87.84375 -18.671875 C 86.382812 -15.285156 83.90625 -12.1875 80.40625 -9.375 C 76.914062 -6.5625 72.148438 -4.296875 66.109375 -2.578125 C 60.066406 -0.859375 52.410156 0 43.140625 0 Z M 34.859375 -55.171875 L 41.578125 -55.171875 C 48.554688 -55.171875 53.582031 -56.785156 56.65625 -60.015625 C 59.726562 -63.242188 61.265625 -68.867188 61.265625 -76.890625 C 61.265625 -85.234375 59.859375 -91.175781 57.046875 -94.71875 C 54.234375 -98.257812 49.648438 -100.03125 43.296875 -100.03125 L 34.859375 -100.03125 Z M 34.859375 -3.125 L 42.671875 -3.125 C 50.484375 -3.125 56.289062 -5.207031 60.09375 -9.375 C 63.894531 -13.539062 65.796875 -20.054688 65.796875 -28.921875 C 65.796875 -37.253906 63.972656 -43.191406 60.328125 -46.734375 C 56.679688 -50.273438 50.691406 -52.046875 42.359375 -52.046875 L 34.859375 -52.046875 Z M 34.859375 -3.125 "/></g></g></g><g fill="#0b0330" fill-opacity="1"><g transform="translate(274.369413, 114.112802)"><g><path d="M 21.875 -85.65625 C 18.332031 -85.65625 15.335938 -86.773438 12.890625 -89.015625 C 10.441406 -91.253906 9.21875 -94.09375 9.21875 -97.53125 C 9.21875 -101.070312 10.441406 -103.9375 12.890625 -106.125 C 15.335938 -108.3125 18.332031 -109.40625 21.875 -109.40625 C 25.425781 -109.40625 28.398438 -108.3125 30.796875 -106.125 C 33.191406 -103.9375 34.390625 -101.070312 34.390625 -97.53125 C 34.390625 -94.09375 33.191406 -91.253906 30.796875 -89.015625 C 28.398438 -86.773438 25.425781 -85.65625 21.875 -85.65625 Z M 3.4375 0 L 3.4375 -1.5625 L 5.625 -2.1875 C 7.707031 -2.8125 9.140625 -3.75 9.921875 -5 C 10.703125 -6.25 11.09375 -7.914062 11.09375 -10 L 11.09375 -58.921875 C 11.09375 -61.109375 10.703125 -62.75 9.921875 -63.84375 C 9.140625 -64.9375 7.707031 -65.691406 5.625 -66.109375 L 3.4375 -66.578125 L 3.4375 -68.140625 L 32.046875 -77.359375 L 33.609375 -75.796875 L 33.140625 -53.609375 L 33.140625 -9.84375 C 33.140625 -7.757812 33.53125 -6.09375 34.3125 -4.84375 C 35.09375 -3.59375 36.472656 -2.65625 38.453125 -2.03125 L 40.015625 -1.5625 L 40.015625 0 Z M 3.4375 0 "/></g></g></g><g fill="#0b0330" fill-opacity="1"><g transform="translate(318.127578, 114.112802)"><g><path d="M 3.59375 0 L 3.59375 -2.5 L 46.265625 -72.046875 L 22.65625 -72.046875 C 19.945312 -72.046875 17.8125 -71.316406 16.25 -69.859375 C 14.6875 -68.398438 13.226562 -66.472656 11.875 -64.078125 L 6.25 -53.609375 L 4.6875 -53.609375 L 5.78125 -75.171875 L 68.296875 -75.171875 L 68.296875 -72.984375 L 26.578125 -3.125 L 51.109375 -3.125 C 54.441406 -3.125 56.890625 -3.90625 58.453125 -5.46875 C 60.015625 -7.03125 61.472656 -9.164062 62.828125 -11.875 L 68.296875 -23.4375 L 69.859375 -23.4375 L 68.453125 0 Z M 3.59375 0 "/></g></g></g><g fill="#0b0330" fill-opacity="1"><g transform="translate(390.797346, 114.112802)"><g><path d="M 3.4375 0 L 3.4375 -1.5625 L 6.25 -2.65625 C 8.332031 -3.488281 9.765625 -4.53125 10.546875 -5.78125 C 11.328125 -7.03125 11.71875 -8.695312 11.71875 -10.78125 L 11.71875 -92.375 C 11.71875 -94.5625 11.328125 -96.28125 10.546875 -97.53125 C 9.765625 -98.78125 8.332031 -99.769531 6.25 -100.5 L 3.4375 -101.59375 L 3.4375 -103.15625 L 48.296875 -103.15625 C 61.003906 -103.15625 70.171875 -100.835938 75.796875 -96.203125 C 81.429688 -91.566406 84.25 -85.707031 84.25 -78.625 C 84.25 -73.300781 82.1875 -68.476562 78.0625 -64.15625 C 73.945312 -59.832031 66.890625 -56.785156 56.890625 -55.015625 C 68.347656 -53.765625 76.734375 -50.769531 82.046875 -46.03125 C 87.367188 -41.289062 90.03125 -35.535156 90.03125 -28.765625 C 90.03125 -25.421875 89.300781 -22.054688 87.84375 -18.671875 C 86.382812 -15.285156 83.90625 -12.1875 80.40625 -9.375 C 76.914062 -6.5625 72.148438 -4.296875 66.109375 -2.578125 C 60.066406 -0.859375 52.410156 0 43.140625 0 Z M 34.859375 -55.171875 L 41.578125 -55.171875 C 48.554688 -55.171875 53.582031 -56.785156 56.65625 -60.015625 C 59.726562 -63.242188 61.265625 -68.867188 61.265625 -76.890625 C 61.265625 -85.234375 59.859375 -91.175781 57.046875 -94.71875 C 54.234375 -98.257812 49.648438 -100.03125 43.296875 -100.03125 L 34.859375 -100.03125 Z M 34.859375 -3.125 L 42.671875 -3.125 C 50.484375 -3.125 56.289062 -5.207031 60.09375 -9.375 C 63.894531 -13.539062 65.796875 -20.054688 65.796875 -28.921875 C 65.796875 -37.253906 63.972656 -43.191406 60.328125 -46.734375 C 56.679688 -50.273438 50.691406 -52.046875 42.359375 -52.046875 L 34.859375 -52.046875 Z M 34.859375 -3.125 "/></g></g></g><g fill="#0b0330" fill-opacity="1"><g transform="translate(484.252219, 114.112802)"><g><path d="M 42.671875 2.34375 C 34.753906 2.34375 27.875 0.703125 22.03125 -2.578125 C 16.195312 -5.859375 11.691406 -10.519531 8.515625 -16.5625 C 5.335938 -22.601562 3.75 -29.691406 3.75 -37.828125 C 3.75 -45.953125 5.441406 -52.984375 8.828125 -58.921875 C 12.210938 -64.859375 16.847656 -69.441406 22.734375 -72.671875 C 28.628906 -75.898438 35.273438 -77.515625 42.671875 -77.515625 C 50.066406 -77.515625 56.679688 -75.925781 62.515625 -72.75 C 68.347656 -69.570312 72.957031 -65.015625 76.34375 -59.078125 C 79.738281 -53.140625 81.4375 -46.054688 81.4375 -37.828125 C 81.4375 -29.585938 79.84375 -22.472656 76.65625 -16.484375 C 73.476562 -10.492188 69 -5.859375 63.21875 -2.578125 C 57.4375 0.703125 50.585938 2.34375 42.671875 2.34375 Z M 42.671875 -0.78125 C 46.316406 -0.78125 49.234375 -1.820312 51.421875 -3.90625 C 53.609375 -5.988281 55.195312 -9.6875 56.1875 -15 C 57.175781 -20.3125 57.671875 -27.816406 57.671875 -37.515625 C 57.671875 -47.304688 57.175781 -54.859375 56.1875 -60.171875 C 55.195312 -65.484375 53.609375 -69.179688 51.421875 -71.265625 C 49.234375 -73.347656 46.316406 -74.390625 42.671875 -74.390625 C 39.023438 -74.390625 36.082031 -73.347656 33.84375 -71.265625 C 31.601562 -69.179688 29.988281 -65.484375 29 -60.171875 C 28.007812 -54.859375 27.515625 -47.304688 27.515625 -37.515625 C 27.515625 -27.816406 28.007812 -20.3125 29 -15 C 29.988281 -9.6875 31.601562 -5.988281 33.84375 -3.90625 C 36.082031 -1.820312 39.023438 -0.78125 42.671875 -0.78125 Z M 42.671875 -0.78125 "/></g></g></g><g fill="#0b0330" fill-opacity="1"><g transform="translate(569.424329, 114.112802)"><g><path d="M 32.828125 2.34375 C 26.148438 2.34375 20.960938 0.675781 17.265625 -2.65625 C 13.566406 -5.988281 11.71875 -11.300781 11.71875 -18.59375 L 11.71875 -72.046875 L 0.9375 -72.046875 L 0.9375 -73.609375 L 4.6875 -74.234375 C 7.914062 -74.960938 10.703125 -76.003906 13.046875 -77.359375 C 15.390625 -78.722656 17.707031 -80.550781 20 -82.84375 L 32.828125 -97.0625 L 34.390625 -97.0625 L 33.921875 -75.171875 L 51.421875 -75.171875 L 51.421875 -72.046875 L 33.765625 -72.046875 L 33.765625 -15.78125 C 33.765625 -12.132812 34.570312 -9.375 36.1875 -7.5 C 37.800781 -5.625 39.859375 -4.6875 42.359375 -4.6875 C 44.546875 -4.6875 46.472656 -5.234375 48.140625 -6.328125 C 49.804688 -7.421875 51.472656 -8.90625 53.140625 -10.78125 L 54.703125 -9.21875 C 52.617188 -5.675781 49.753906 -2.863281 46.109375 -0.78125 C 42.460938 1.300781 38.035156 2.34375 32.828125 2.34375 Z M 32.828125 2.34375 "/></g></g></g></svg>